<?xml version="1.0" standalone="no"?>
<!DOCTYPE svg PUBLIC "-//W3C//DTD SVG 20010904//EN"
 "http://www.w3.org/TR/2001/REC-SVG-20010904/DTD/svg10.dtd">
<svg version="1.0" xmlns="http://www.w3.org/2000/svg"
 width="1000.000000pt" height="1080.000000pt" viewBox="0 0 1000.000000 1080.000000"
 preserveAspectRatio="xMidYMid meet">

<g transform="translate(0.000000,1080.000000) scale(0.100000,-0.100000)"
fill="#000000" stroke="none">
<path d="M2318 8366 c-87 -23 -154 -86 -193 -178 -13 -33 -15 -190 -15 -1371
0 -1492 -5 -1384 73 -1473 25 -29 62 -56 94 -71 l54 -23 1853 0 c2050 0 1902
-5 1983 64 21 19 52 58 68 87 l30 54 0 1355 0 1355 -27 50 c-34 64 -80 108
-143 137 l-50 23 -1840 2 c-1463 1 -1850 -1 -1887 -11z m3522 -1551 l0 -1165
-1655 0 -1655 0 0 1158 c0 637 3 1162 7 1165 3 4 748 7 1655 7 l1648 0 0
-1165z"/>
<path d="M3888 7613 l922 -3 0 -135 0 -135 -922 -3 -923 -2 928 -3 927 -2 0
145 0 145 -927 -2 -928 -3 923 -2z"/>
<path d="M3260 6817 l0 -147 928 2 927 3 -922 2 -921 3 -1 137 c-1 75 -4 139
-6 142 -3 2 -5 -62 -5 -142z"/>
<path d="M5102 6813 c-1 -45 -5 -90 -8 -100 -5 -17 -5 -17 6 -1 6 11 9 51 7
100 l-3 83 -2 -82z"/>
<path d="M3580 6283 c0 -5 409 -7 910 -5 l909 2 4 -142 3 -143 2 148 2 147
-915 0 c-503 0 -915 -3 -915 -7z"/>
<path d="M3564 6140 c0 -74 1 -105 3 -67 2 37 2 97 0 135 -2 37 -3 6 -3 -68z"/>
<path d="M5376 6255 c4 -8 8 -15 10 -15 2 0 4 7 4 15 0 8 -4 15 -10 15 -5 0
-7 -7 -4 -15z"/>
<path d="M6560 5555 l0 -1005 -2143 -2 -2144 -3 131 -202 131 -202 2213 -1
2212 0 0 1005 0 1005 470 0 470 0 0 205 0 205 -670 0 -670 0 0 -1005z"/>
<path d="M3547 4920 l-87 -130 844 0 844 0 -86 130 -87 130 -671 0 -671 0 -86
-130z"/>
<path d="M3128 3923 c18 -2 45 -2 60 0 15 2 0 4 -33 4 -33 0 -45 -2 -27 -4z"/>
<path d="M5125 3914 c-26 -9 -29 -11 -10 -7 17 3 62 9 100 13 l70 7 -60 1
c-33 0 -78 -6 -100 -14z"/>
<path d="M3060 3910 c0 -5 4 -10 9 -10 6 0 13 5 16 10 3 6 -1 10 -9 10 -9 0
-16 -4 -16 -10z"/>
<path d="M3230 3914 c72 -24 99 -37 94 -46 -4 -7 -2 -8 4 -4 7 4 12 9 12 12 0
9 -85 44 -105 43 -14 0 -15 -2 -5 -5z"/>
<path d="M5298 3913 c7 -3 16 -2 19 1 4 3 -2 6 -13 5 -11 0 -14 -3 -6 -6z"/>
<path d="M5378 3884 c29 -14 49 -30 46 -35 -3 -5 0 -8 8 -7 7 2 12 -3 10 -10
-1 -8 2 -11 8 -7 5 3 10 3 10 -2 0 -4 13 -17 28 -27 23 -16 22 -13 -8 19 -39
42 -116 95 -139 95 -8 0 8 -12 37 -26z"/>
<path d="M2958 3870 c-65 -43 -74 -56 -38 -55 20 0 26 3 19 12 -7 7 -6 13 1
18 5 3 10 1 10 -6 0 -7 8 -5 20 6 11 10 18 21 15 24 -3 3 5 11 17 18 13 7 18
12 12 13 -6 0 -31 -14 -56 -30z m12 -10 c0 -5 -5 -10 -11 -10 -5 0 -7 5 -4 10
3 6 8 10 11 10 2 0 4 -4 4 -10z"/>
<path d="M5045 3880 c-23 -15 -25 -19 -10 -18 11 0 29 -3 40 -7 14 -5 16 -4 6
3 -11 8 -11 10 0 15 11 4 11 6 1 6 -7 1 -10 6 -7 11 9 14 4 13 -30 -10z"/>
<path d="M5328 3883 c7 -3 16 -2 19 1 4 3 -2 6 -13 5 -11 0 -14 -3 -6 -6z"/>
<path d="M3275 3870 c3 -5 8 -10 11 -10 2 0 4 5 4 10 0 6 -5 10 -11 10 -5 0
-7 -4 -4 -10z"/>
<path d="M5375 3860 c10 -11 20 -20 23 -20 3 0 -3 9 -13 20 -10 11 -20 20 -23
20 -3 0 3 -9 13 -20z"/>
<path d="M3344 3858 c-4 -7 -4 -10 1 -6 4 4 15 2 24 -5 14 -11 14 -10 2 6 -16
20 -18 21 -27 5z"/>
<path d="M5308 3863 c7 -3 16 -2 19 1 4 3 -2 6 -13 5 -11 0 -14 -3 -6 -6z"/>
<path d="M4970 3823 c-22 -23 -26 -31 -12 -21 21 14 59 58 50 58 -2 0 -19 -17
-38 -37z"/>
<path d="M3395 3831 c6 -11 4 -13 -8 -8 -9 3 -19 2 -22 -4 -4 -5 -3 -9 2 -8
20 3 34 -2 28 -11 -4 -6 -3 -10 2 -9 21 4 34 -2 27 -13 -4 -6 -3 -8 3 -5 13 8
26 -20 16 -35 -3 -6 -1 -8 4 -5 13 8 26 -20 16 -35 -3 -6 -1 -8 4 -5 6 4 13
-9 17 -31 8 -52 8 -62 -5 -59 -6 1 -14 -5 -16 -13 -4 -13 -3 -13 6 0 8 11 11
12 11 2 0 -7 5 -10 11 -6 29 17 -28 196 -66 211 -8 3 -13 9 -10 13 3 4 -3 14
-12 21 -14 12 -16 12 -8 0z"/>
<path d="M2868 3782 c-8 -10 -9 -13 -1 -9 6 4 14 3 17 -2 4 -5 14 -8 24 -6 9
2 19 4 22 4 2 1 -1 6 -8 13 -18 18 -40 18 -54 0z m48 -4 c3 -4 -1 -5 -10 -4
-8 1 -18 5 -22 8 -3 4 1 5 10 4 8 -1 18 -5 22 -8z"/>
<path d="M4910 3740 c-11 -21 -20 -43 -20 -47 0 -10 34 45 43 70 12 31 -2 18
-23 -23z"/>
<path d="M5506 3762 c11 -7 34 -46 34 -57 0 -3 -5 -3 -12 1 -7 5 -8 3 -3 -5 5
-8 11 -9 17 -3 12 12 -17 72 -35 72 -8 0 -9 -3 -1 -8z"/>
<path d="M2840 3736 c0 -2 8 -10 18 -17 15 -13 16 -12 3 4 -13 16 -21 21 -21
13z"/>
<path d="M2828 3702 c-4 -12 -2 -20 2 -17 5 3 16 -2 24 -11 9 -8 16 -11 16 -5
0 5 -6 14 -14 18 -7 4 -15 15 -18 23 -3 10 -6 8 -10 -8z"/>
<path d="M5551 3674 c0 -11 3 -14 6 -6 3 7 2 16 -1 19 -3 4 -6 -2 -5 -13z"/>
<path d="M4882 3660 c0 -14 2 -19 5 -12 2 6 2 18 0 25 -3 6 -5 1 -5 -13z"/>
<path d="M2812 3635 c0 -16 2 -22 5 -12 2 9 2 23 0 30 -3 6 -5 -1 -5 -18z"/>
<path d="M5563 3615 c0 -22 2 -30 4 -17 2 12 2 30 0 40 -3 9 -5 -1 -4 -23z"/>
<path d="M4873 3580 c0 -30 2 -43 4 -27 2 15 2 39 0 55 -2 15 -4 2 -4 -28z"/>
<path d="M2807 3550 c3 -30 7 -57 9 -59 7 -8 2 64 -6 89 -6 16 -7 6 -3 -30z"/>
<path d="M5562 3540 c0 -19 2 -27 5 -17 2 9 2 25 0 35 -3 9 -5 1 -5 -18z"/>
<path d="M3492 3525 c0 -16 2 -22 5 -12 2 9 2 23 0 30 -3 6 -5 -1 -5 -18z"/>
<path d="M4881 3510 c0 -8 4 -24 9 -35 5 -13 9 -14 9 -5 0 8 -4 24 -9 35 -5
13 -9 14 -9 5z"/>
<path d="M5544 3475 c-3 -37 -84 -155 -107 -155 -5 0 -4 6 2 13 8 11 7 14 -7
14 -9 0 -22 -4 -28 -9 -6 -4 -20 -5 -30 -2 -11 4 -16 3 -11 -1 4 -5 17 -9 30
-11 12 -1 25 -3 30 -3 4 -1 7 -6 7 -12 0 -6 -6 -9 -13 -6 -8 3 -14 -1 -14 -8
0 -56 156 136 157 193 0 24 -15 12 -16 -13z"/>
<path d="M3475 3461 c-3 -12 -10 -19 -15 -16 -4 3 -10 -1 -13 -8 -3 -8 1 -14
8 -14 13 0 40 46 31 54 -2 2 -7 -5 -11 -16z"/>
<path d="M2836 3454 c-3 -9 3 -31 15 -50 24 -40 25 -40 25 -15 0 11 -4 17 -8
15 -4 -3 -12 4 -17 15 -14 25 -14 34 -1 26 6 -3 7 1 4 9 -8 20 -10 20 -18 0z"/>
<path d="M4916 3422 c-3 -5 1 -9 9 -9 8 0 12 4 9 9 -3 4 -7 8 -9 8 -2 0 -6 -4
-9 -8z"/>
<path d="M3430 3390 c-20 -16 -21 -20 -8 -20 10 0 22 9 28 20 13 25 11 25 -20
0z"/>
<path d="M4947 3376 c-3 -8 10 -28 31 -47 20 -19 30 -25 22 -14 -8 11 -23 26
-32 33 -9 7 -15 19 -12 27 4 8 4 15 1 15 -3 0 -7 -6 -10 -14z"/>
<path d="M2900 3334 c25 -27 117 -84 135 -84 6 0 -14 14 -44 31 -35 20 -50 34
-42 39 9 5 8 9 -4 13 -9 4 -13 3 -10 -3 3 -6 1 -10 -5 -10 -6 0 -13 6 -16 14
-3 8 -13 17 -22 21 -11 4 -8 -3 8 -21z"/>
<path d="M3396 3338 c-10 -13 -15 -16 -13 -7 3 9 -1 16 -8 16 -8 0 -11 -7 -7
-15 3 -9 1 -13 -4 -9 -6 3 -16 2 -24 -4 -12 -7 -12 -9 -1 -9 11 0 11 -3 1 -15
-15 -18 -35 -20 -24 -3 4 7 3 8 -5 4 -6 -4 -8 -12 -5 -18 4 -6 -2 -8 -17 -3
-16 4 -20 3 -11 -3 10 -7 5 -11 -19 -16 -18 -3 -29 -9 -26 -13 10 -9 92 25
119 50 13 12 27 22 32 22 5 0 15 10 24 23 8 12 12 22 9 22 -2 0 -12 -10 -21
-22z"/>
<path d="M5014 3326 c10 -8 15 -19 12 -25 -4 -5 -3 -12 2 -15 4 -2 9 4 9 15 1
11 -8 24 -20 30 -21 9 -21 9 -3 -5z"/>
<path d="M3285 3309 c-4 -6 -5 -12 -2 -15 2 -3 7 2 10 11 7 17 1 20 -8 4z"/>
<path d="M5090 3258 c32 -15 67 -22 120 -23 41 -1 57 -1 35 1 -84 8 -125 16
-121 22 3 4 -3 8 -12 8 -9 0 -28 3 -42 7 -14 4 -5 -3 20 -15z"/>
<path d="M5354 3268 c10 -6 22 -6 26 -2 5 5 -3 10 -18 11 -22 1 -24 0 -8 -9z"/>
<path d="M5190 3260 c-8 -5 -10 -10 -5 -10 6 0 17 5 25 10 8 5 11 10 5 10 -5
0 -17 -5 -25 -10z"/>
<path d="M5300 3248 c0 -11 22 -10 39 1 10 7 7 9 -12 8 -15 -1 -27 -5 -27 -9z"/>
<path d="M3075 3240 c21 -9 152 -14 144 -6 -3 3 -40 7 -84 9 -47 3 -72 1 -60
-3z"/>
<path d="M0 400 l0 -400 5000 0 5000 0 0 400 0 400 -5000 0 -5000 0 0 -400z
m2192 123 c23 -20 23 -57 1 -74 -15 -11 -16 -11 -5 1 27 31 11 72 -33 83 -19
4 -19 5 -1 6 11 0 28 -6 38 -16z m-69 -8 c-3 -9 -8 -14 -10 -11 -3 3 -2 9 2
15 9 16 15 13 8 -4z m-1760 -114 c22 -61 43 -108 47 -104 4 4 24 56 45 116 21
59 42 107 47 107 11 0 9 -5 -42 -149 -23 -64 -44 -107 -53 -109 -15 -3 -17 0
-67 143 -15 44 -31 88 -36 99 -5 13 -3 17 6 14 8 -2 32 -55 53 -117z m517 89
c0 -23 4 -30 20 -30 11 0 20 -4 20 -10 0 -5 -10 -10 -21 -10 -20 0 -21 -4 -17
-71 3 -55 8 -74 23 -85 23 -17 14 -29 -13 -15 -11 6 -22 25 -26 42 -10 51 -7
209 4 209 6 0 10 -13 10 -30z m515 16 c25 -11 33 -19 29 -30 -7 -19 -5 -19
-40 -1 -36 18 -55 19 -78 2 -28 -21 -9 -45 49 -62 87 -25 108 -74 54 -127 -29
-29 -33 -30 -90 -25 -68 6 -72 8 -64 29 5 13 12 14 40 5 50 -15 100 1 100 33
0 16 -8 28 -25 36 -87 40 -105 51 -108 67 -14 70 53 106 133 73z m105 -16 c0
-25 4 -30 25 -30 16 0 25 -6 25 -15 0 -9 -9 -15 -25 -15 -24 0 -25 -3 -25 -60
0 -55 2 -62 25 -72 14 -6 25 -15 25 -20 0 -18 -31 -20 -55 -4 -24 16 -25 20
-25 131 0 96 3 115 15 115 10 0 15 -10 15 -30z m482 -32 l3 -62 36 32 c20 18
45 32 55 32 14 0 9 -9 -21 -40 l-39 -40 42 -60 c40 -57 41 -60 20 -60 -16 0
-32 14 -53 45 -16 25 -33 45 -37 45 -5 0 -8 -20 -8 -45 0 -38 -3 -45 -20 -45
-19 0 -20 7 -20 130 0 122 1 130 20 130 16 0 19 -8 22 -62z m193 30 c1 -20 -2
-24 -11 -17 -8 7 -14 6 -17 -3 -3 -7 -6 2 -6 20 -1 27 3 33 17 30 11 -2 17
-13 17 -30z m-44 -35 c13 -16 12 -17 -3 -4 -17 13 -22 21 -14 21 2 0 10 -8 17
-17z m-1502 -19 c12 -15 21 -40 21 -55 0 -29 0 -29 -65 -29 -72 0 -83 -12 -44
-51 17 -17 30 -20 65 -16 43 4 59 -5 28 -17 -45 -17 -106 3 -123 41 -45 98 56
206 118 127z m191 16 c17 -11 10 -13 -40 -10 -47 2 -75 -28 -75 -80 0 -55 26
-80 82 -80 27 0 42 -4 38 -10 -9 -15 -78 -12 -102 5 -50 35 -50 135 0 170 24
17 74 20 97 5z m265 -13 c20 -16 28 -35 32 -69 5 -42 3 -50 -25 -78 -41 -41
-83 -41 -124 0 -28 28 -30 36 -25 78 9 82 84 119 142 69z m85 7 c0 -14 2 -14
22 0 24 17 38 20 38 9 0 -5 -14 -16 -30 -25 -29 -17 -30 -19 -30 -93 0 -43 -4
-75 -10 -75 -6 0 -10 40 -10 100 0 60 4 100 10 100 6 0 10 -7 10 -16z m537 1
c30 -21 44 -75 32 -120 -25 -88 -143 -88 -168 0 -20 72 20 135 84 135 17 0 40
-7 52 -15z m198 -5 c0 -10 -8 -14 -27 -12 -58 6 -91 -42 -67 -100 11 -28 36
-40 74 -35 12 1 20 -4 20 -13 0 -19 -48 -25 -85 -10 -63 26 -68 148 -6 179 31
15 91 9 91 -9z m5354 -83 c8 -26 17 -47 21 -47 4 0 13 21 21 47 8 25 20 48 26
50 8 3 4 -21 -11 -64 -13 -38 -29 -68 -36 -68 -7 0 -23 30 -36 68 -15 43 -19
67 -11 64 6 -2 18 -25 26 -50z m638 38 c2 -6 -9 -11 -23 -10 -39 0 -42 -23 -5
-36 34 -12 49 -43 31 -64 -13 -16 -38 -19 -64 -9 -27 10 -18 22 17 20 38 -1
43 19 8 37 -36 18 -48 42 -31 62 14 17 61 17 67 0z m333 -20 c0 -35 16 -47 26
-20 4 8 13 15 22 15 13 0 13 -3 -2 -19 -16 -18 -16 -21 -1 -50 19 -38 8 -40
-22 -3 l-22 27 -1 -27 c0 -16 -4 -28 -10 -28 -6 0 -10 30 -10 70 0 40 4 70 10
70 6 0 10 -16 10 -35z m580 32 c0 -4 -34 -104 -45 -136 -3 -8 -8 -11 -11 -8
-8 7 38 147 48 147 4 0 8 -2 8 -3z m100 -16 c-5 -11 -15 -23 -20 -26 -6 -4 -1
-14 12 -25 20 -15 21 -21 10 -44 -11 -26 -34 -32 -66 -20 -28 11 -17 24 14 18
22 -5 31 -2 36 11 6 16 -3 28 -31 39 -6 2 -5 9 3 17 18 19 15 29 -8 29 -11 0
-20 5 -20 10 0 6 18 10 40 10 37 0 40 -2 30 -19z m112 -33 c2 -29 2 -61 0 -70
-5 -22 -22 -24 -22 -3 0 10 -10 15 -30 15 -16 0 -30 3 -30 6 0 16 56 104 67
104 6 0 13 -22 15 -52z m122 30 c44 -63 -17 -154 -68 -102 -9 9 -16 32 -16 54
0 64 52 94 84 48z m120 0 c44 -63 -17 -154 -68 -102 -9 9 -16 32 -16 54 0 64
52 94 84 48z m113 10 c14 -23 12 -106 -2 -118 -33 -27 -86 8 -70 46 4 11 7 27
6 37 -5 38 47 64 66 35z m127 -10 c44 -63 -17 -154 -68 -102 -9 9 -16 32 -16
54 0 64 52 94 84 48z m126 17 c0 -6 -60 -127 -66 -134 -2 -2 -7 -2 -10 1 -3 3
6 29 20 57 14 28 26 53 26 56 0 3 -13 5 -30 5 -16 0 -30 5 -30 10 0 6 20 10
45 10 25 0 45 -2 45 -5z m60 -55 c0 -33 4 -60 10 -60 6 0 10 -4 10 -10 0 -5
-13 -10 -30 -10 -16 0 -30 5 -30 10 0 6 5 10 10 10 6 0 10 20 10 45 0 38 -2
43 -17 38 -16 -6 -16 -4 1 15 29 34 36 27 36 -38z m-2090 15 c9 -10 9 -15 1
-15 -15 0 -14 -57 2 -63 6 -2 9 -7 6 -11 -15 -17 -37 8 -41 47 -7 58 5 74 32
42z m360 0 c9 -10 9 -15 1 -15 -15 0 -14 -57 2 -63 6 -2 9 -7 6 -11 -15 -17
-37 8 -41 47 -7 58 5 74 32 42z m-532 -7 c23 -23 13 -38 -24 -38 -46 0 -41
-23 7 -30 27 -4 30 -7 16 -13 -28 -11 -44 -9 -61 9 -32 31 -14 84 29 84 12 0
26 -5 33 -12z m109 5 c14 -6 10 -9 -17 -13 -29 -4 -35 -9 -35 -30 0 -21 6 -26
35 -30 27 -4 31 -7 17 -13 -10 -4 -25 -7 -32 -7 -20 0 -45 28 -45 50 0 22 25
50 45 50 7 0 22 -3 32 -7z m177 -9 c31 -30 9 -84 -34 -84 -24 0 -50 26 -50 50
0 24 26 50 50 50 10 0 26 -7 34 -16z m86 6 c0 -4 -7 -10 -15 -14 -9 -3 -15
-19 -15 -41 0 -19 -4 -35 -10 -35 -5 0 -10 22 -10 49 0 45 2 49 25 49 14 0 25
-4 25 -8z m274 -6 c21 -20 20 -43 -1 -66 -20 -22 -46 -23 -67 -2 -31 30 -9 84
34 84 10 0 26 -7 34 -16z m121 7 c3 -5 -9 -11 -27 -13 -28 -2 -33 -7 -33 -28
0 -21 5 -26 33 -28 36 -4 34 -22 -3 -22 -28 0 -55 24 -55 50 0 37 67 69 85 41z
m242 2 c14 -6 10 -9 -17 -13 -29 -4 -35 -9 -35 -30 0 -21 5 -26 33 -28 36 -4
34 -22 -3 -22 -28 0 -55 24 -55 50 0 22 25 50 45 50 7 0 22 -3 32 -7z m107 -9
c31 -30 9 -84 -34 -84 -24 0 -50 26 -50 50 0 24 26 50 50 50 10 0 26 -7 34
-16z m113 4 c7 -5 14 -5 18 2 10 16 42 12 49 -6 10 -25 7 -84 -4 -84 -5 0 -10
18 -10 41 0 33 -3 40 -17 37 -13 -2 -19 -14 -21 -41 -4 -50 -22 -47 -22 4 0
36 -2 40 -22 37 -19 -2 -24 -10 -26 -40 -5 -55 -22 -46 -22 10 0 48 0 49 33
49 17 0 37 -4 44 -9z m-327 -78 c0 -5 -4 -10 -10 -10 -5 0 -10 5 -10 10 0 6 5
10 10 10 6 0 10 -4 10 -10z"/>
<path d="M2150 500 c0 -5 5 -10 10 -10 6 0 10 5 10 10 0 6 -4 10 -10 10 -5 0
-10 -4 -10 -10z"/>
<path d="M536 418 c-28 -39 -21 -48 39 -48 59 0 67 9 45 51 -15 27 -64 25 -84
-3z"/>
<path d="M986 424 c-50 -50 -21 -144 44 -144 48 0 80 50 66 104 -13 53 -75 75
-110 40z"/>
<path d="M1616 408 c-32 -46 -8 -118 39 -118 28 0 55 34 55 70 0 36 -27 70
-55 70 -13 0 -31 -10 -39 -22z"/>
<path d="M8977 350 c-18 -29 -18 -30 2 -30 17 0 21 6 21 30 0 17 -1 30 -3 30
-1 0 -11 -13 -20 -30z"/>
<path d="M9084 365 c-9 -38 3 -75 26 -75 13 0 22 9 26 25 9 38 -3 75 -26 75
-13 0 -22 -9 -26 -25z"/>
<path d="M9204 365 c-9 -38 3 -75 26 -75 13 0 22 9 26 25 9 38 -3 75 -26 75
-13 0 -22 -9 -26 -25z"/>
<path d="M9332 373 c5 -26 38 -29 38 -4 0 15 -6 21 -21 21 -14 0 -19 -5 -17
-17z"/>
<path d="M9324 325 c-8 -21 10 -39 30 -32 22 9 20 24 -4 37 -16 9 -22 8 -26
-5z"/>
<path d="M9444 365 c-9 -38 3 -75 26 -75 13 0 22 9 26 25 9 38 -3 75 -26 75
-13 0 -22 -9 -26 -25z"/>
<path d="M7375 340 c-4 -6 5 -10 19 -10 14 0 26 5 26 10 0 6 -9 10 -19 10 -11
0 -23 -4 -26 -10z"/>
<path d="M7654 336 c-10 -26 4 -48 28 -44 17 2 23 10 23 28 0 18 -6 26 -23 28
-13 2 -25 -3 -28 -12z"/>
<path d="M8014 336 c-10 -26 4 -48 28 -44 17 2 23 10 23 28 0 18 -6 26 -23 28
-13 2 -25 -3 -28 -12z"/>
<path d="M8484 336 c-10 -26 4 -48 28 -44 17 2 23 10 23 28 0 18 -6 26 -23 28
-13 2 -25 -3 -28 -12z"/>
</g>
</svg>
